<svg width="70" height="70" viewBox="0 0 70 70" fill="none" xmlns="http://www.w3.org/2000/svg">
<g clip-path="url(#clip0_28_319)">
<path d="M70 35C70 15.67 54.33 0 35 0C15.67 0 0 15.67 0 35C0 54.33 15.67 70 35 70C54.33 70 70 54.33 70 35Z" fill="#141414" style="fill:#141414;fill:color(display-p3 0.0800 0.0800 0.0800);fill-opacity:1;"/>
<path d="M69.3002 35C69.3002 16.0566 53.9436 0.700012 35.0002 0.700012C16.0568 0.700012 0.700195 16.0566 0.700195 35C0.700195 53.9434 16.0568 69.3 35.0002 69.3C53.9436 69.3 69.3002 53.9434 69.3002 35Z" stroke="white" stroke-opacity="0.1" style="stroke:white;stroke-opacity:0.1;" stroke-width="1.4"/>
<path d="M25.3544 48.64C25.0941 48.64 24.8599 48.5491 24.6517 48.3672C24.4435 48.1593 24.3394 47.9125 24.3394 47.6267V22.3732C24.3394 22.0875 24.4435 21.8536 24.6517 21.6718C24.8599 21.4639 25.0941 21.36 25.3544 21.36H37.808C40.1764 21.36 42.1153 21.6718 43.6249 22.2953C45.1344 22.9188 46.2535 23.8152 46.9823 24.9843C47.711 26.1535 48.0754 27.5954 48.0754 29.3102C48.0754 30.1935 47.8932 30.9859 47.5288 31.6874C47.1905 32.3629 46.774 32.9345 46.2795 33.4022C45.785 33.8438 45.3166 34.1686 44.8741 34.3764C45.8892 34.8181 46.7741 35.5716 47.5288 36.6368C48.2836 37.676 48.661 38.8711 48.661 40.2222C48.661 42.0408 48.2445 43.5737 47.4117 44.8208C46.6049 46.0679 45.4207 47.0162 43.8591 47.6657C42.3235 48.3152 40.4366 48.64 38.1984 48.64H25.3544ZM32.7328 42.7553H37.3005C38.1854 42.7553 38.836 42.4955 39.2524 41.9759C39.6689 41.4303 39.8771 40.8327 39.8771 40.1832C39.8771 39.5077 39.6558 38.9231 39.2134 38.4295C38.771 37.9099 38.1333 37.65 37.3005 37.65H32.7328V42.7553ZM32.7328 31.9212H36.9101C37.7429 31.9212 38.3545 31.6874 38.7449 31.2198C39.1353 30.7521 39.3305 30.2065 39.3305 29.583C39.3305 28.9594 39.1353 28.4138 38.7449 27.9462C38.3545 27.4785 37.7429 27.2447 36.9101 27.2447H32.7328V31.9212Z" fill="white" style="fill:white;fill-opacity:1;"/>
</g>
<defs>
<clipPath id="clip0_28_319">
<rect width="70" height="70" fill="white" style="fill:white;fill-opacity:1;"/>
</clipPath>
</defs>
</svg>
